# xmcd
#
# Track frame offsets: 
#        150
#        11705
#        25860
#        41590
#        57337
#        68655
#        83930
#        92562
#        108387
#        122470
#        137845
#        150315
#
# Disc length: 2187 seconds
#
# Revision: 2
# Processed by: cddbd v1.4b42PL1 Copyright (c) Steve Scherf et al.
# Submitted via: ExactAudioCopy v0.90a11
#
DISCID=9008890c
DTITLE=Hoyt Axton - Road Songs
DYEAR=1900
DGENRE=
TTITLE0=No No Song
TTITLE1=Boney Fingers
TTITLE2=In a Young Girl's Mind
TTITLE3=Telephone Booth
TTITLE4=Paid in Advance
TTITLE5=Lion in the Winter
TTITLE6=I Love to Sing
TTITLE7=When the Morning Comes
TTITLE8=Lay, Lady, Lay
TTITLE9=Sweet Misery
TTITLE10=Flash of Fire
TTITLE11=Less Than the Song
EXTD=
EXTT0=
EXTT1=
EXTT2=
EXTT3=
EXTT4=
EXTT5=
EXTT6=
EXTT7=
EXTT8=
EXTT9=
EXTT10=
EXTT11=
PLAYORDER=
